<svg xmlns:xlink="http://www.w3.org/1999/xlink" width="971.152" height="675.583" viewBox="0 0 728.364 506.687" xmlns="http://www.w3.org/2000/svg"><defs><style>*{stroke-linejoin:round;stroke-linecap:butt}</style></defs><g id="prefix__figure_1"><path d="M0 506.687h728.364V0H0z" fill="#fff" id="prefix__patch_1"/><g id="prefix__axes_1"><path d="M51.564 468.368h669.6V24.848h-669.6z" fill="#fff" id="prefix__patch_2"/><g id="prefix__matplotlib_axis_1"><g id="prefix__xtick_1"><g transform="matrix(.1 0 0 -.1 127.602 482.525)" fill="#262626" id="prefix__text_1"><defs><path id="prefix__ArialMT-49" d="M597 0v4581h606V0H597z" transform="scale(.01563)"/><path id="prefix__ArialMT-4e" d="M488 0v4581h621L3516 984v3597h581V0h-622L1069 3600V0H488z" transform="scale(.01563)"/><path id="prefix__ArialMT-54" d="M1659 0v4041H150v540h3631v-540H2266V0h-607z" transform="scale(.01563)"/><path id="prefix__ArialMT-45" d="M506 0v4581h3313v-540H1113V2638h2534v-538H1113V541h2812V0H506z" transform="scale(.01563)"/><path id="prefix__ArialMT-52" d="M503 0v4581h2031q613 0 931-124 319-123 510-436 191-312 191-690 0-487-316-822-316-334-975-425 241-115 366-228 265-243 503-609L4541 0h-763l-606 953q-266 413-438 631-171 219-307 306-136 88-277 123-103 21-337 21h-704V0H503zm606 2559h1304q415 0 649 86 235 86 357 275t122 411q0 325-236 534-236 210-746 210H1109V2559z" transform="scale(.01563)"/><path id="prefix__ArialMT-53" d="M288 1472l571 50q41-344 189-564 149-220 461-356 313-136 704-136 346 0 612 103t395 282q130 180 130 393 0 215-125 376t-412 271q-185 72-816 223-631 152-884 286-329 172-490 426-160 255-160 571 0 347 196 648 197 302 575 458 379 156 841 156 509 0 898-164 390-164 599-483 209-318 225-721l-581-44q-47 434-318 656-270 222-798 222-550 0-802-202-251-201-251-485 0-247 178-407 175-159 914-326t1014-292q400-185 590-468 191-282 191-651 0-366-209-690-209-323-602-503-392-179-882-179-622 0-1043 181-420 181-659 545-239 365-251 824z" transform="scale(.01563)"/><path id="prefix__ArialMT-50" d="M494 0v4581h1728q456 0 697-43 337-57 565-215 229-157 368-442 139-284 139-625 0-584-372-989-372-404-1344-404H1100V0H494zm606 2403h1184q588 0 835 219t247 616q0 287-146 491-145 205-382 271-154 41-566 41H1100V2403z" transform="scale(.01563)"/><path id="prefix__ArialMT-43" d="M3763 1606l606-153q-191-747-686-1139T2472-78q-741 0-1205 301-464 302-706 874T319 2325q0 716 273 1248 274 533 778 809 505 277 1111 277 688 0 1156-350 469-350 654-984l-597-141q-160 500-463 728-303 229-762 229-528 0-883-254-355-253-499-680-143-426-143-879 0-584 170-1020t529-652q360-215 779-215 509 0 862 293 354 294 479 872z" transform="scale(.01563)"/><path id="prefix__ArialMT-48" d="M513 0v4581h606V2700h2381v1881h606V0h-606v2159H1119V0H513z" transform="scale(.01563)"/></defs><use xlink:href="#prefix__ArialMT-49"/><use xlink:href="#prefix__ArialMT-4e" x="27.783"/><use xlink:href="#prefix__ArialMT-54" x="100"/><use xlink:href="#prefix__ArialMT-45" x="161.084"/><use xlink:href="#prefix__ArialMT-52" x="227.783"/><use xlink:href="#prefix__ArialMT-53" x="300"/><use xlink:href="#prefix__ArialMT-50" x="366.699"/><use xlink:href="#prefix__ArialMT-45" x="433.398"/><use xlink:href="#prefix__ArialMT-45" x="500.098"/><use xlink:href="#prefix__ArialMT-43" x="566.797"/><use xlink:href="#prefix__ArialMT-48" x="639.014"/></g></g><g id="prefix__xtick_2"><g transform="matrix(.1 0 0 -.1 374.418 482.525)" fill="#262626" id="prefix__text_2"><defs><path id="prefix__ArialMT-56" d="M1803 0L28 4581h656l1191-3328q144-400 241-750 106 375 247 750l1237 3328h619L2425 0h-622z" transform="scale(.01563)"/></defs><use xlink:href="#prefix__ArialMT-49"/><use xlink:href="#prefix__ArialMT-43" x="27.783"/><use xlink:href="#prefix__ArialMT-43" x="100"/><use xlink:href="#prefix__ArialMT-56" x="172.217"/></g></g><g id="prefix__xtick_3"><g transform="matrix(.1 0 0 -.1 595.675 482.525)" fill="#262626" id="prefix__text_3"><defs><path id="prefix__ArialMT-4d" d="M475 0v4581h913l1084-3243q150-454 219-679 78 250 243 735l1097 3187h816V0h-584v3834L2931 0h-547L1059 3900V0H475z" transform="scale(.01563)"/></defs><use xlink:href="#prefix__ArialMT-49"/><use xlink:href="#prefix__ArialMT-53" x="27.783"/><use xlink:href="#prefix__ArialMT-4d" x="94.482"/><use xlink:href="#prefix__ArialMT-49" x="177.783"/><use xlink:href="#prefix__ArialMT-52" x="205.566"/></g></g><g transform="matrix(.12 0 0 -.12 355.347 497.102)" fill="#262626" id="prefix__text_4"><defs><path id="prefix__ArialMT-6f" d="M213 1659q0 922 512 1366 428 369 1044 369 684 0 1118-449 435-448 435-1239 0-640-192-1008-192-367-560-570-367-203-801-203-697 0-1127 447-429 447-429 1287zm578 0q0-637 278-954t700-317q419 0 697 318 278 319 278 972 0 616-280 933t-695 317q-422 0-700-316-278-315-278-953z" transform="scale(.01563)"/><path id="prefix__ArialMT-6e" d="M422 0v3319h506v-472q366 547 1056 547 300 0 552-108t377-283q125-175 175-415 31-157 31-547V0h-563v2019q0 344-66 514-65 170-232 271-167 102-392 102-360 0-621-228t-261-865V0H422z" transform="scale(.01563)"/><path id="prefix__ArialMT-66" d="M556 0v2881H59v438h497v353q0 334 60 497 81 219 285 354 205 136 574 136 238 0 525-56l-84-490q-175 31-332 31-256 0-362-110-106-109-106-409v-306h647v-438h-647V0H556z" transform="scale(.01563)"/><path id="prefix__ArialMT-65" d="M2694 1069l581-72q-137-509-509-791-372-281-950-281-728 0-1155 448-427 449-427 1258 0 838 431 1300 432 463 1119 463 666 0 1088-453t422-1275q0-50-3-150H816q31-547 309-838 278-290 694-290 309 0 528 162 219 163 347 519zM847 1978h1853q-37 419-212 628-269 325-697 325-388 0-652-259t-292-694z" transform="scale(.01563)"/><path id="prefix__ArialMT-72" d="M416 0v3319h506v-503q194 353 358 465 164 113 361 113 284 0 578-181l-194-522q-206 122-412 122-185 0-332-111t-209-308q-94-300-94-656V0H416z" transform="scale(.01563)"/><path id="prefix__ArialMT-63" d="M2588 1216l553-72q-91-572-465-896-373-323-917-323-681 0-1095 445-414 446-414 1277 0 537 178 940 178 404 542 605 364 202 793 202 540 0 884-274 344-273 441-776l-547-85q-78 335-277 503-198 169-480 169-425 0-691-305-265-304-265-963 0-669 256-972 257-303 669-303 331 0 553 203t282 625z" transform="scale(.01563)"/></defs><use xlink:href="#prefix__ArialMT-43"/><use xlink:href="#prefix__ArialMT-6f" x="72.217"/><use xlink:href="#prefix__ArialMT-6e" x="127.832"/><use xlink:href="#prefix__ArialMT-66" x="183.447"/><use xlink:href="#prefix__ArialMT-65" x="211.23"/><use xlink:href="#prefix__ArialMT-72" x="266.846"/><use xlink:href="#prefix__ArialMT-65" x="300.146"/><use xlink:href="#prefix__ArialMT-6e" x="355.762"/><use xlink:href="#prefix__ArialMT-63" x="411.377"/><use xlink:href="#prefix__ArialMT-65" x="461.377"/></g></g><g id="prefix__matplotlib_axis_2"><g id="prefix__ytick_1"><path d="M51.564 468.368h669.6" clip-path="url(#prefix__paf667134a4)" fill="none" stroke="#ccc" stroke-width=".8" stroke-linecap="round" id="prefix__line2d_1"/><g transform="matrix(.1 0 0 -.1 39.003 471.946)" fill="#262626" id="prefix__text_5"><defs><path id="prefix__ArialMT-30" d="M266 2259q0 813 167 1308 167 496 496 764 330 269 830 269 369 0 647-149 278-148 459-428 182-279 285-681 103-401 103-1083 0-806-166-1301-165-495-495-766-329-270-833-270-662 0-1040 475-453 572-453 1862zm578 0q0-1128 264-1502 264-373 651-373 388 0 652 375t264 1500q0 1132-264 1503-264 372-658 372-387 0-619-328-290-418-290-1547z" transform="scale(.01563)"/></defs><use xlink:href="#prefix__ArialMT-30"/></g></g><g id="prefix__ytick_2"><path d="M51.564 370.408h669.6" clip-path="url(#prefix__paf667134a4)" fill="none" stroke="#ccc" stroke-width=".8" stroke-linecap="round" id="prefix__line2d_2"/><g transform="matrix(.1 0 0 -.1 27.882 373.987)" fill="#262626" id="prefix__text_6"><defs><path id="prefix__ArialMT-35" d="M266 1200l590 50q66-431 305-649 239-217 577-217 406 0 687 306 281 307 281 813 0 481-270 759-270 279-708 279-272 0-491-124-218-123-343-320l-528 69 443 2353h2279v-538H1259l-246-1231q412 288 865 288 600 0 1012-416 413-416 413-1069 0-622-362-1075Q2500-78 1738-78q-625 0-1021 350-395 350-451 928z" transform="scale(.01563)"/></defs><use xlink:href="#prefix__ArialMT-35"/><use xlink:href="#prefix__ArialMT-30" x="55.615"/><use xlink:href="#prefix__ArialMT-30" x="111.23"/></g></g><g id="prefix__ytick_3"><path d="M51.564 272.45h669.6" clip-path="url(#prefix__paf667134a4)" fill="none" stroke="#ccc" stroke-width=".8" stroke-linecap="round" id="prefix__line2d_3"/><g transform="matrix(.1 0 0 -.1 22.32 276.028)" fill="#262626" id="prefix__text_7"><defs><path id="prefix__ArialMT-31" d="M2384 0h-562v3584q-203-193-533-387t-592-291v544q472 222 825 537 353 316 500 613h362V0z" transform="scale(.01563)"/></defs><use xlink:href="#prefix__ArialMT-31"/><use xlink:href="#prefix__ArialMT-30" x="55.615"/><use xlink:href="#prefix__ArialMT-30" x="111.23"/><use xlink:href="#prefix__ArialMT-30" x="166.846"/></g></g><g id="prefix__ytick_4"><path d="M51.564 174.49h669.6" clip-path="url(#prefix__paf667134a4)" fill="none" stroke="#ccc" stroke-width=".8" stroke-linecap="round" id="prefix__line2d_4"/><g transform="matrix(.1 0 0 -.1 22.32 178.069)" fill="#262626" id="prefix__text_8"><use xlink:href="#prefix__ArialMT-31"/><use xlink:href="#prefix__ArialMT-35" x="55.615"/><use xlink:href="#prefix__ArialMT-30" x="111.23"/><use xlink:href="#prefix__ArialMT-30" x="166.846"/></g></g><g id="prefix__ytick_5"><path d="M51.564 76.53h669.6" clip-path="url(#prefix__paf667134a4)" fill="none" stroke="#ccc" stroke-width=".8" stroke-linecap="round" id="prefix__line2d_5"/><g transform="matrix(.1 0 0 -.1 22.32 80.11)" fill="#262626" id="prefix__text_9"><defs><path id="prefix__ArialMT-32" d="M3222 541V0H194q-6 203 65 391 116 309 370 609 255 300 737 694 747 612 1009 970 263 358 263 677 0 334-240 563-239 230-623 230-406 0-650-244-244-243-247-674l-578 59q59 647 446 986 388 339 1042 339 659 0 1043-366 385-365 385-906 0-275-113-541-112-265-373-559t-867-806q-507-425-651-577-143-151-237-304h2247z" transform="scale(.01563)"/></defs><use xlink:href="#prefix__ArialMT-32"/><use xlink:href="#prefix__ArialMT-30" x="55.615"/><use xlink:href="#prefix__ArialMT-30" x="111.23"/><use xlink:href="#prefix__ArialMT-30" x="166.846"/></g></g><g transform="matrix(0 -.12 -.12 0 15.936 295.293)" fill="#262626" id="prefix__text_10"><defs><path id="prefix__ArialMT-75" d="M2597 0v488Q2209-75 1544-75q-294 0-549 112-254 113-378 283-123 171-173 418-35 165-35 525v2056h563V1478q0-440 34-594 53-221 225-348t425-127q253 0 475 130t314 353q93 224 93 649v1778h562V0h-503z" transform="scale(.01563)"/><path id="prefix__ArialMT-6d" d="M422 0v3319h503v-466q156 244 415 392 260 149 591 149 369 0 605-153t333-428q394 581 1025 581 494 0 759-274 266-273 266-842V0h-560v2091q0 337-55 485-54 149-198 239-143 91-337 91-350 0-582-233-231-232-231-745V0h-562v2156q0 375-138 562-137 188-450 188-237 0-439-125-201-125-292-366-91-240-91-693V0H422z" transform="scale(.01563)"/><path id="prefix__ArialMT-62" d="M941 0H419v4581h562V2947q357 447 910 447 306 0 579-124 274-123 450-347 177-223 277-539 100-315 100-675 0-853-422-1319Q2453-75 1863-75q-588 0-922 491V0zm-7 1684q0-596 163-862 266-434 719-434 368 0 637 320t269 955q0 650-258 959t-623 309q-369 0-638-320t-269-927z" transform="scale(.01563)"/><path id="prefix__ArialMT-61" d="M2588 409q-313-265-602-375-289-109-620-109-547 0-841 267T231 875q0 244 111 445 111 202 291 324t405 184q165 44 500 85 681 81 1003 193 3 116 3 147 0 344-160 485-215 190-640 190-397 0-586-139t-280-492l-550 75q75 353 247 570t497 334q325 118 753 118 425 0 690-100 266-100 391-252 125-151 175-383 28-143 28-518v-750q0-785 36-993 36-207 143-398h-588q-87 175-112 409zm-47 1257q-307-125-919-213-347-50-491-113-143-62-222-182-78-120-78-267 0-225 170-375 171-150 499-150 325 0 578 142t372 389q91 191 91 562v207z" transform="scale(.01563)"/><path id="prefix__ArialMT-70" d="M422-1272v4591h512v-431q182 253 410 379 228 127 553 127 425 0 750-219t490-618q166-398 166-873 0-509-183-917-182-408-531-625-348-217-733-217-281 0-505 119-223 119-367 300v-1616H422zm509 2913q0-641 259-947 260-306 629-306 375 0 642 317t267 983q0 634-261 949-261 316-623 316-360 0-637-336-276-336-276-976z" transform="scale(.01563)"/><path id="prefix__ArialMT-73" d="M197 991l556 87q47-334 261-512t599-178q387 0 574 157 188 158 188 371 0 190-166 300-115 75-575 190-618 157-857 271t-363 315q-123 202-123 446 0 221 101 410 102 190 277 315 131 96 357 163 227 68 487 68 390 0 685-113 296-112 436-305 141-192 194-513l-550-75q-37 256-217 399-180 144-508 144-387 0-553-128t-166-300q0-109 69-197 69-90 216-150 84-31 497-143 597-160 832-262 236-101 370-295 135-193 135-481 0-281-164-530-164-248-474-384-309-136-699-136-647 0-986 269T197 991z" transform="scale(.01563)"/></defs><use xlink:href="#prefix__ArialMT-4e"/><use xlink:href="#prefix__ArialMT-75" x="72.217"/><use xlink:href="#prefix__ArialMT-6d" x="127.832"/><use xlink:href="#prefix__ArialMT-62" x="211.133"/><use xlink:href="#prefix__ArialMT-65" x="266.748"/><use xlink:href="#prefix__ArialMT-72" x="322.363"/><use xlink:href="#prefix__ArialMT-20" x="355.664"/><use xlink:href="#prefix__ArialMT-6f" x="383.447"/><use xlink:href="#prefix__ArialMT-66" x="439.063"/><use xlink:href="#prefix__ArialMT-20" x="466.846"/><use xlink:href="#prefix__ArialMT-50" x="494.629"/><use xlink:href="#prefix__ArialMT-61" x="561.328"/><use xlink:href="#prefix__ArialMT-70" x="616.943"/><use xlink:href="#prefix__ArialMT-65" x="672.559"/><use xlink:href="#prefix__ArialMT-72" x="728.174"/><use xlink:href="#prefix__ArialMT-73" x="761.475"/></g></g><path d="M73.884 468.368h44.64v-223.74h-44.64z" clip-path="url(#prefix__paf667134a4)" fill="#4ca52b" stroke="#fff" id="prefix__patch_3"/><path d="M297.084 468.368h44.64v-422.4h-44.64z" clip-path="url(#prefix__paf667134a4)" fill="#4ca52b" stroke="#fff" id="prefix__patch_4"/><path d="M520.284 468.368h44.64v-28.213h-44.64z" clip-path="url(#prefix__paf667134a4)" fill="#4ca52b" stroke="#fff" id="prefix__patch_5"/><path d="M118.524 468.368h44.64v-98.352h-44.64z" clip-path="url(#prefix__paf667134a4)" fill="#a02e2e" stroke="#fff" id="prefix__patch_6"/><path d="M341.724 468.368h44.64V143.142h-44.64z" clip-path="url(#prefix__paf667134a4)" fill="#a02e2e" stroke="#fff" id="prefix__patch_7"/><path d="M564.924 468.368h44.64v-10.776h-44.64z" clip-path="url(#prefix__paf667134a4)" fill="#a02e2e" stroke="#fff" id="prefix__patch_8"/><path d="M163.164 468.368h44.64v-48.392h-44.64z" clip-path="url(#prefix__paf667134a4)" fill="#317bab" stroke="#fff" id="prefix__patch_9"/><path d="M386.364 468.368h44.64V190.358h-44.64z" clip-path="url(#prefix__paf667134a4)" fill="#317bab" stroke="#fff" id="prefix__patch_10"/><path d="M609.564 468.368h44.64v-13.519h-44.64z" clip-path="url(#prefix__paf667134a4)" fill="#317bab" stroke="#fff" id="prefix__patch_11"/><path d="M207.804 468.368h44.64-44.64z" clip-path="url(#prefix__paf667134a4)" fill="#df2020" stroke="#fff" id="prefix__patch_12"/><path d="M431.004 468.368h44.64V414.49h-44.64z" clip-path="url(#prefix__paf667134a4)" fill="#df2020" stroke="#fff" id="prefix__patch_13"/><path d="M654.204 468.368h44.64-44.64z" clip-path="url(#prefix__paf667134a4)" fill="#df2020" stroke="#fff" id="prefix__patch_14"/><path d="M163.164 468.368h0z" clip-path="url(#prefix__paf667134a4)" fill="#4ca52b" stroke="#fff" id="prefix__patch_15"/><path d="M163.164 468.368h0z" clip-path="url(#prefix__paf667134a4)" fill="#a02e2e" stroke="#fff" id="prefix__patch_16"/><path d="M163.164 468.368h0z" clip-path="url(#prefix__paf667134a4)" fill="#317bab" stroke="#fff" id="prefix__patch_17"/><path d="M163.164 468.368h0z" clip-path="url(#prefix__paf667134a4)" fill="#df2020" stroke="#fff" id="prefix__patch_18"/><path d="M51.564 468.368V24.848" fill="none" stroke="#ccc" stroke-width=".8" stroke-linecap="square" id="prefix__patch_19"/><path d="M51.564 468.368h669.6" fill="none" stroke="#ccc" stroke-width=".8" stroke-linecap="square" id="prefix__patch_20"/><g id="prefix__text_11"><path d="M81.019 243.22h30.371q4.2 0 4.2-4.2v-12.783q0-4.2-4.2-4.2H81.019q-4.2 0-4.2 4.2v12.784q0 4.2 4.2 4.2z" fill="#d3d3d3" opacity=".7" id="prefix__patch_21"/><g transform="matrix(.14 0 0 -.14 81.019 236.258)"><defs><path id="prefix__Arial-BoldMT-31" d="M2519 0h-878v3309q-482-450-1135-665v797q344 112 747 426t553 733h713V0z" transform="scale(.01563)"/><path id="prefix__Arial-BoldMT-34" d="M1994 0v922H119v769l1987 2909h738V1694h569V922h-569V0h-850zm0 1694v1565L941 1694h1053z" transform="scale(.01563)"/><path id="prefix__Arial-BoldMT-32" d="M3238 816V0H159q50 463 300 877t988 1098q594 553 728 750 181 272 181 538 0 293-158 451-157 158-435 158-275 0-438-166-162-165-187-550l-875 88q78 725 490 1040 413 316 1031 316 679 0 1066-366 388-365 388-909 0-309-111-589t-352-586q-159-203-575-585-416-381-527-506-110-125-179-243h1744z" transform="scale(.01563)"/></defs><use xlink:href="#prefix__Arial-BoldMT-31"/><use xlink:href="#prefix__Arial-BoldMT-31" x="50.115"/><use xlink:href="#prefix__Arial-BoldMT-34" x="105.73"/><use xlink:href="#prefix__Arial-BoldMT-32" x="161.346"/></g></g><g id="prefix__text_12"><path d="M303.834 44.56h31.141q4.2 0 4.2-4.2V27.575q0-4.2-4.2-4.2h-31.141q-4.2 0-4.2 4.2v12.783q0 4.2 4.2 4.2z" fill="#d3d3d3" opacity=".7" id="prefix__patch_22"/><g transform="matrix(.14 0 0 -.14 303.834 37.597)"><defs><path id="prefix__Arial-BoldMT-35" d="M284 1178l875 91q38-297 222-471 185-173 425-173 275 0 466 223 191 224 191 674 0 422-190 633-189 211-492 211-378 0-678-335l-712 103 450 2385h2322v-822H1506l-137-778q294 147 600 147 584 0 990-425 407-425 407-1103 0-566-328-1010Q2591-78 1797-78q-634 0-1034 340-400 341-479 916z" transform="scale(.01563)"/><path id="prefix__Arial-BoldMT-36" d="M3247 3459l-850-93q-31 262-163 387-131 125-340 125-278 0-471-250-192-250-242-1040 328 387 816 387 550 0 942-419 392-418 392-1081 0-703-413-1128Q2506-78 1859-78q-693 0-1140 539T272 2228q0 1260 465 1816 466 556 1210 556 522 0 864-292t436-849zM1256 1544q0-428 197-661t450-233q244 0 406 190 163 191 163 626 0 447-175 654-175 208-438 208-253 0-428-199-175-198-175-585z" transform="scale(.01563)"/></defs><use xlink:href="#prefix__Arial-BoldMT-32"/><use xlink:href="#prefix__Arial-BoldMT-31" x="55.615"/><use xlink:href="#prefix__Arial-BoldMT-35" x="111.23"/><use xlink:href="#prefix__Arial-BoldMT-36" x="166.846"/></g></g><g id="prefix__text_13"><path d="M530.926 438.747h23.356q4.2 0 4.2-4.2v-12.784q0-4.2-4.2-4.2h-23.356q-4.2 0-4.2 4.2v12.784q0 4.2 4.2 4.2z" fill="#d3d3d3" opacity=".7" id="prefix__patch_23"/><g transform="matrix(.14 0 0 -.14 530.926 431.784)"><use xlink:href="#prefix__Arial-BoldMT-31"/><use xlink:href="#prefix__Arial-BoldMT-34" x="55.615"/><use xlink:href="#prefix__Arial-BoldMT-34" x="111.23"/></g></g><g id="prefix__text_14"><path d="M129.166 368.608h23.356q4.2 0 4.2-4.2v-12.783q0-4.2-4.2-4.2h-23.356q-4.2 0-4.2 4.2v12.783q0 4.2 4.2 4.2z" fill="#d3d3d3" opacity=".7" id="prefix__patch_24"/><g transform="matrix(.14 0 0 -.14 129.166 361.646)"><defs><path id="prefix__Arial-BoldMT-30" d="M1756 4600q666 0 1041-475 447-562 447-1866 0-1300-450-1868Q2422-78 1756-78q-668 0-1078 514-409 514-409 1833 0 1294 450 1862 372 469 1037 469zm0-728q-159 0-284-102-125-101-194-364-90-340-90-1147 0-806 81-1108 81-301 204-401 124-100 283-100 160 0 285 101 125 102 193 365 91 337 91 1143 0 807-81 1108-81 302-205 403-123 102-283 102z" transform="scale(.01563)"/></defs><use xlink:href="#prefix__Arial-BoldMT-35"/><use xlink:href="#prefix__Arial-BoldMT-30" x="55.615"/><use xlink:href="#prefix__Arial-BoldMT-32" x="111.23"/></g></g><g id="prefix__text_15"><path d="M348.474 141.735h31.141q4.2 0 4.2-4.2V124.75q0-4.2-4.2-4.2h-31.141q-4.2 0-4.2 4.2v12.784q0 4.2 4.2 4.2z" fill="#d3d3d3" opacity=".7" id="prefix__patch_25"/><g transform="matrix(.14 0 0 -.14 348.474 134.772)"><use xlink:href="#prefix__Arial-BoldMT-31"/><use xlink:href="#prefix__Arial-BoldMT-36" x="55.615"/><use xlink:href="#prefix__Arial-BoldMT-36" x="111.23"/><use xlink:href="#prefix__Arial-BoldMT-30" x="166.846"/></g></g><g id="prefix__text_16"><path d="M579.46 456.184h15.57q4.2 0 4.2-4.2V439.2q0-4.2-4.2-4.2h-15.57q-4.2 0-4.2 4.2v12.784q0 4.2 4.2 4.2z" fill="#d3d3d3" opacity=".7" id="prefix__patch_26"/><g transform="matrix(.14 0 0 -.14 579.46 449.221)"><use xlink:href="#prefix__Arial-BoldMT-35"/><use xlink:href="#prefix__Arial-BoldMT-35" x="55.615"/></g></g><g id="prefix__text_17"><path d="M173.806 418.568h23.356q4.2 0 4.2-4.2v-12.784q0-4.2-4.2-4.2h-23.356q-4.2 0-4.2 4.2v12.784q0 4.2 4.2 4.2z" fill="#d3d3d3" opacity=".7" id="prefix__patch_27"/><g transform="matrix(.14 0 0 -.14 173.806 411.605)"><defs><path id="prefix__Arial-BoldMT-37" d="M272 3703v816h3003v-638q-372-365-757-1050-384-684-586-1455Q1731 606 1734 0H888q21 950 391 1937 371 988 990 1766H272z" transform="scale(.01563)"/></defs><use xlink:href="#prefix__Arial-BoldMT-32"/><use xlink:href="#prefix__Arial-BoldMT-34" x="55.615"/><use xlink:href="#prefix__Arial-BoldMT-37" x="111.23"/></g></g><g id="prefix__text_18"><path d="M393.114 188.951h31.141q4.2 0 4.2-4.2v-12.784q0-4.2-4.2-4.2h-31.141q-4.2 0-4.2 4.2v12.784q0 4.2 4.2 4.2z" fill="#d3d3d3" opacity=".7" id="prefix__patch_28"/><g transform="matrix(.14 0 0 -.14 393.114 181.988)"><defs><path id="prefix__Arial-BoldMT-39" d="M291 1059l850 94q31-259 162-384t347-125q272 0 462 250 191 250 244 1037-331-384-828-384-540 0-933 417-392 417-392 1086 0 697 414 1123 414 427 1055 427 697 0 1144-539t447-1773q0-1257-466-1813T1584-81q-537 0-869 286-331 286-424 854zm1987 1919q0 425-195 659-195 235-452 235-243 0-404-192t-161-630q0-444 175-652 175-207 437-207 253 0 426 200 174 200 174 587z" transform="scale(.01563)"/></defs><use xlink:href="#prefix__Arial-BoldMT-31"/><use xlink:href="#prefix__Arial-BoldMT-34" x="55.615"/><use xlink:href="#prefix__Arial-BoldMT-31" x="111.23"/><use xlink:href="#prefix__Arial-BoldMT-39" x="166.846"/></g></g><g id="prefix__text_19"><path d="M624.1 453.441h15.57q4.2 0 4.2-4.2v-12.784q0-4.2-4.2-4.2H624.1q-4.2 0-4.2 4.2v12.784q0 4.2 4.2 4.2z" fill="#d3d3d3" opacity=".7" id="prefix__patch_29"/><g transform="matrix(.14 0 0 -.14 624.1 446.478)"><use xlink:href="#prefix__Arial-BoldMT-36"/><use xlink:href="#prefix__Arial-BoldMT-39" x="55.615"/></g></g><g id="prefix__text_20"><path d="M441.646 413.082h23.356q4.2 0 4.2-4.2v-12.784q0-4.2-4.2-4.2h-23.356q-4.2 0-4.2 4.2v12.784q0 4.2 4.2 4.2z" fill="#d3d3d3" opacity=".7" id="prefix__patch_30"/><g transform="matrix(.14 0 0 -.14 441.646 406.119)"><use xlink:href="#prefix__Arial-BoldMT-32"/><use xlink:href="#prefix__Arial-BoldMT-37" x="55.615"/><use xlink:href="#prefix__Arial-BoldMT-35" x="111.23"/></g></g><g transform="matrix(.16 0 0 -.16 240.084 18.848)" fill="#262626" id="prefix__text_21"><defs><path id="prefix__ArialMT-74" d="M1650 503l81-497q-237-50-425-50-306 0-475 97-168 97-237 255t-69 664v1909H113v438h412v822l559 337V3319h566v-438h-566V941q0-241 30-310 30-68 97-109t192-41q94 0 247 22z" transform="scale(.01563)"/><path id="prefix__ArialMT-69" d="M425 3934v647h563v-647H425zM425 0v3319h563V0H425z" transform="scale(.01563)"/><path id="prefix__ArialMT-28" d="M1497-1347Q1031-759 709 28 388 816 388 1659q0 744 240 1425 281 791 869 1575h403q-378-650-500-928-191-431-300-900-134-584-134-1175 0-1503 934-3003h-403z" transform="scale(.01563)"/><path id="prefix__ArialMT-33" d="M269 1209l562 75q97-478 330-689t567-211q397 0 670 275 274 275 274 682 0 387-253 638-253 252-644 252-159 0-397-62l63 494q56-7 90-7 360 0 647 187 288 188 288 579 0 309-210 512-209 204-540 204-328 0-547-207-219-206-281-618l-563 100q103 565 468 876 366 311 910 311 375 0 690-161 316-161 483-439 168-278 168-591 0-296-160-540-159-244-471-388 406-93 631-389 225-295 225-739 0-600-438-1017Q2394-81 1725-81q-603 0-1002 359-398 360-454 931z" transform="scale(.01563)"/><path id="prefix__ArialMT-29" d="M791-1347H388q934 1500 934 3003 0 588-134 1166-107 469-297 900-122 281-503 937h403q587-784 868-1575 241-681 241-1425 0-843-324-1631-323-787-785-1375z" transform="scale(.01563)"/></defs><use xlink:href="#prefix__ArialMT-43"/><use xlink:href="#prefix__ArialMT-6f" x="72.217"/><use xlink:href="#prefix__ArialMT-6e" x="127.832"/><use xlink:href="#prefix__ArialMT-66" x="183.447"/><use xlink:href="#prefix__ArialMT-65" x="211.23"/><use xlink:href="#prefix__ArialMT-72" x="266.846"/><use xlink:href="#prefix__ArialMT-65" x="300.146"/><use xlink:href="#prefix__ArialMT-6e" x="355.762"/><use xlink:href="#prefix__ArialMT-63" x="411.377"/><use xlink:href="#prefix__ArialMT-65" x="461.377"/><use xlink:href="#prefix__ArialMT-20" x="516.992"/><use xlink:href="#prefix__ArialMT-53" x="544.775"/><use xlink:href="#prefix__ArialMT-74" x="611.475"/><use xlink:href="#prefix__ArialMT-61" x="639.258"/><use xlink:href="#prefix__ArialMT-74" x="694.873"/><use xlink:href="#prefix__ArialMT-69" x="722.656"/><use xlink:href="#prefix__ArialMT-73" x="744.873"/><use xlink:href="#prefix__ArialMT-74" x="794.873"/><use xlink:href="#prefix__ArialMT-69" x="822.656"/><use xlink:href="#prefix__ArialMT-63" x="844.873"/><use xlink:href="#prefix__ArialMT-73" x="894.873"/><use xlink:href="#prefix__ArialMT-20" x="944.873"/><use xlink:href="#prefix__ArialMT-43" x="972.656"/><use xlink:href="#prefix__ArialMT-6f" x="1044.873"/><use xlink:href="#prefix__ArialMT-6d" x="1100.488"/><use xlink:href="#prefix__ArialMT-70" x="1183.789"/><use xlink:href="#prefix__ArialMT-61" x="1239.404"/><use xlink:href="#prefix__ArialMT-72" x="1295.02"/><use xlink:href="#prefix__ArialMT-69" x="1328.32"/><use xlink:href="#prefix__ArialMT-73" x="1350.537"/><use xlink:href="#prefix__ArialMT-6f" x="1400.537"/><use xlink:href="#prefix__ArialMT-6e" x="1456.152"/><use xlink:href="#prefix__ArialMT-20" x="1511.768"/><use xlink:href="#prefix__ArialMT-28" x="1539.551"/><use xlink:href="#prefix__ArialMT-32" x="1572.852"/><use xlink:href="#prefix__ArialMT-30" x="1628.467"/><use xlink:href="#prefix__ArialMT-32" x="1684.082"/><use xlink:href="#prefix__ArialMT-33" x="1739.697"/><use xlink:href="#prefix__ArialMT-29" x="1795.313"/></g><g id="prefix__legend_1"><path d="M596.56 105.818h117.604q2 0 2-2v-71.97q0-2-2-2H596.56q-2 0-2 2v71.97q0 2 2 2z" fill="#fff" opacity=".8" stroke="#ccc" id="prefix__patch_31"/><g transform="matrix(.12 0 0 -.12 631.018 42.583)" fill="#262626" id="prefix__text_22"><defs><path id="prefix__ArialMT-67" d="M319-275l547-81q34-253 190-369 210-156 572-156 391 0 603 156 213 156 288 437 44 172 40 722Q2191 0 1641 0 956 0 581 494T206 1678q0 475 172 876 172 402 498 621 327 219 768 219 587 0 969-475v400h518V450q0-775-158-1098-157-324-500-511-342-188-842-188-593 0-959 267T319-275zm465 1994q0-653 259-953 260-300 651-300 387 0 649 298 263 299 263 936 0 609-270 918-270 310-652 310-375 0-638-305-262-304-262-904z" transform="scale(.01563)"/><path id="prefix__ArialMT-79" d="M397-1278l-63 528q185-50 322-50 188 0 300 63 113 62 185 174 53 85 172 419 15 47 50 138L103 3319h606l691-1922q134-366 241-769 97 388 231 756l709 1935h563L1881-56q-203-547-315-753-150-279-344-408-194-130-463-130-162 0-362 69z" transform="scale(.01563)"/></defs><use xlink:href="#prefix__ArialMT-43"/><use xlink:href="#prefix__ArialMT-61" x="72.217"/><use xlink:href="#prefix__ArialMT-74" x="127.832"/><use xlink:href="#prefix__ArialMT-65" x="155.615"/><use xlink:href="#prefix__ArialMT-67" x="211.23"/><use xlink:href="#prefix__ArialMT-6f" x="266.846"/><use xlink:href="#prefix__ArialMT-72" x="322.461"/><use xlink:href="#prefix__ArialMT-79" x="355.762"/></g><path d="M598.56 57.267h20v-7h-20z" fill="#4ca52b" stroke="#fff" id="prefix__patch_32"/><g transform="matrix(.1 0 0 -.1 626.56 57.267)" fill="#262626" id="prefix__text_23"><defs><path id="prefix__ArialMT-6c" d="M409 0v4581h563V0H409z" transform="scale(.01563)"/></defs><use xlink:href="#prefix__ArialMT-54"/><use xlink:href="#prefix__ArialMT-6f" x="49.959"/><use xlink:href="#prefix__ArialMT-74" x="105.574"/><use xlink:href="#prefix__ArialMT-61" x="133.357"/><use xlink:href="#prefix__ArialMT-6c" x="188.973"/><use xlink:href="#prefix__ArialMT-20" x="211.189"/><use xlink:href="#prefix__ArialMT-50" x="238.973"/><use xlink:href="#prefix__ArialMT-61" x="305.672"/><use xlink:href="#prefix__ArialMT-70" x="361.287"/><use xlink:href="#prefix__ArialMT-65" x="416.902"/><use xlink:href="#prefix__ArialMT-72" x="472.518"/><use xlink:href="#prefix__ArialMT-73" x="505.818"/></g><path d="M598.56 71.412h20v-7h-20z" fill="#a02e2e" stroke="#fff" id="prefix__patch_33"/><g transform="matrix(.1 0 0 -.1 626.56 71.412)" fill="#262626" id="prefix__text_24"><use xlink:href="#prefix__ArialMT-50"/><use xlink:href="#prefix__ArialMT-72" x="66.699"/><use xlink:href="#prefix__ArialMT-65" x="100"/><use xlink:href="#prefix__ArialMT-70" x="155.615"/><use xlink:href="#prefix__ArialMT-72" x="211.23"/><use xlink:href="#prefix__ArialMT-69" x="244.531"/><use xlink:href="#prefix__ArialMT-6e" x="266.748"/><use xlink:href="#prefix__ArialMT-74" x="322.363"/><use xlink:href="#prefix__ArialMT-20" x="350.146"/><use xlink:href="#prefix__ArialMT-50" x="377.93"/><use xlink:href="#prefix__ArialMT-61" x="444.629"/><use xlink:href="#prefix__ArialMT-70" x="500.244"/><use xlink:href="#prefix__ArialMT-65" x="555.859"/><use xlink:href="#prefix__ArialMT-72" x="611.475"/><use xlink:href="#prefix__ArialMT-73" x="644.775"/></g><path d="M598.56 85.685h20v-7h-20z" fill="#317bab" stroke="#fff" id="prefix__patch_34"/><g transform="matrix(.1 0 0 -.1 626.56 85.685)" fill="#262626" id="prefix__text_25"><defs><path id="prefix__ArialMT-4f" d="M309 2231q0 1141 612 1786 613 646 1582 646 635 0 1144-304 509-303 776-845 268-542 268-1230 0-696-282-1246-281-550-797-833Q3097-78 2500-78q-647 0-1157 312-509 313-772 853-262 541-262 1144zm625-9q0-828 445-1305 446-476 1118-476 684 0 1126 481 443 481 443 1366 0 559-189 976t-554 647q-364 230-817 230-643 0-1108-443-464-442-464-1476z" transform="scale(.01563)"/><path id="prefix__ArialMT-64" d="M2575 0v419Q2259-75 1647-75q-397 0-730 219T401 755q-182 392-182 901 0 497 165 902 166 405 497 620 332 216 741 216 300 0 534-127 235-126 382-329v1643h559V0h-522zM797 1656q0-637 268-953 269-315 635-315 369 0 626 301 258 302 258 920 0 682-263 1000-262 319-646 319-375 0-627-306-251-306-251-966z" transform="scale(.01563)"/></defs><use xlink:href="#prefix__ArialMT-4f"/><use xlink:href="#prefix__ArialMT-70" x="77.783"/><use xlink:href="#prefix__ArialMT-65" x="133.398"/><use xlink:href="#prefix__ArialMT-6e" x="189.014"/><use xlink:href="#prefix__ArialMT-20" x="244.629"/><use xlink:href="#prefix__ArialMT-43" x="272.412"/><use xlink:href="#prefix__ArialMT-6f" x="344.629"/><use xlink:href="#prefix__ArialMT-64" x="400.244"/><use xlink:href="#prefix__ArialMT-65" x="455.859"/><use xlink:href="#prefix__ArialMT-20" x="511.475"/><use xlink:href="#prefix__ArialMT-50" x="539.258"/><use xlink:href="#prefix__ArialMT-61" x="605.957"/><use xlink:href="#prefix__ArialMT-70" x="661.572"/><use xlink:href="#prefix__ArialMT-65" x="717.188"/><use xlink:href="#prefix__ArialMT-72" x="772.803"/><use xlink:href="#prefix__ArialMT-73" x="806.104"/></g><path d="M598.56 99.83h20v-7h-20z" fill="#df2020" stroke="#fff" id="prefix__patch_35"/><g transform="matrix(.1 0 0 -.1 626.56 99.83)" fill="#262626" id="prefix__text_26"><use xlink:href="#prefix__ArialMT-56"/><use xlink:href="#prefix__ArialMT-69" x="64.949"/><use xlink:href="#prefix__ArialMT-64" x="87.166"/><use xlink:href="#prefix__ArialMT-65" x="142.781"/><use xlink:href="#prefix__ArialMT-6f" x="198.396"/><use xlink:href="#prefix__ArialMT-20" x="254.012"/><use xlink:href="#prefix__ArialMT-50" x="281.795"/><use xlink:href="#prefix__ArialMT-61" x="348.494"/><use xlink:href="#prefix__ArialMT-70" x="404.109"/><use xlink:href="#prefix__ArialMT-65" x="459.725"/><use xlink:href="#prefix__ArialMT-72" x="515.34"/><use xlink:href="#prefix__ArialMT-73" x="548.641"/></g></g></g></g><defs><clipPath id="prefix__paf667134a4"><path d="M51.564 24.848h669.6v443.52h-669.6z"/></clipPath></defs></svg>