<svg xmlns="http://www.w3.org/2000/svg" viewBox="0 0 18 18"><path fill="none" d="M-5-5h584v404H-5z"/><path fill="#fff" d="M1.1 1.1h15.7v15.7H1.1z"/><path d="M15.2 0C16.8 0 18 1.2 18 2.8v12.5c0 1.5-1.2 2.8-2.8 2.8H2.8C1.2 18 0 16.8 0 15.2V2.8C0 1.2 1.2 0 2.8 0h12.4zm0 1.5H2.8c-.7 0-1.2.6-1.2 1.2v12.5c0 .7.6 1.2 1.2 1.2h12.5c.7 0 1.2-.6 1.2-1.2V2.8c0-.7-.6-1.3-1.3-1.3zM7 11.4L13.5 5c.3-.3.8-.3 1.1 0 .3.3.3.7.1 1h-.2l-7 7c-.3.3-.7.3-1 .1V13l-3-3c-.3-.3-.3-.7 0-1 .3-.3.7-.3 1-.1V9L7 11.4 13.5 5 7 11.4z" fill="#197bbd"/></svg>