<?xml version="1.0" encoding="utf-8"?>
<!-- Generator: Adobe Illustrator 25.0.0, SVG Export Plug-In . SVG Version: 6.00 Build 0)  -->
<svg version="1.1" id="Слой_1" xmlns="http://www.w3.org/2000/svg" xmlns:xlink="http://www.w3.org/1999/xlink" x="0px" y="0px"
	 viewBox="0 0 18 18" style="enable-background:new 0 0 18 18;" xml:space="preserve">
<style type="text/css">
	.st0{fill:none;}
	.st1{fill:#FFFFFF;}
	.st2{fill:#197BBD;}
</style>
<g>
	<rect id="canvas_background" x="-5" y="-5" class="st0" width="584" height="404"/>
</g>
<g>
	<rect id="svg_2" x="1.1" y="1.1" class="st1" width="15.7" height="15.7"/>
	<path id="svg_1" class="st2" d="M15.2,0C16.8,0,18,1.2,18,2.8v12.5c0,1.5-1.2,2.8-2.8,2.8H2.8C1.2,18,0,16.8,0,15.2V2.8
		C0,1.2,1.2,0,2.8,0H15.2z M15.2,1.5H2.8c-0.7,0-1.2,0.6-1.2,1.2v12.5c0,0.7,0.6,1.2,1.2,1.2h12.5c0.7,0,1.2-0.6,1.2-1.2V2.8
		C16.5,2.1,15.9,1.5,15.2,1.5z M7,11.4L13.5,5c0.3-0.3,0.8-0.3,1.1,0c0.3,0.3,0.3,0.7,0.1,1L14.5,6l-7,7c-0.3,0.3-0.7,0.3-1,0.1
		L6.5,13l-3-3C3.2,9.7,3.2,9.3,3.5,9c0.3-0.3,0.7-0.3,1-0.1L4.5,9L7,11.4L13.5,5C13.5,5,7,11.4,7,11.4z"/>
</g>
</svg>
