<svg xmlns="http://www.w3.org/2000/svg" fill="none" viewBox="-1.2000000000000002 -1.2000000000000002 14 14" style="background-color: #ffffff"><g id="dashboard-3--app-application-dashboard-home-layout-vertical"><path id="Vector" stroke="#000" stroke-linecap="round" stroke-linejoin="round" d="M10.864285714285714 5.432142857142857H7.521428571428571c-0.23077414285714287 0 -0.41785714285714287 0.187083 -0.41785714285714287 0.41785714285714287v5.014285714285714c0 0.2307407142857143 0.187083 0.41785714285714287 0.41785714285714287 0.41785714285714287h3.342857142857143c0.2307407142857143 0 0.41785714285714287 -0.18711642857142857 0.41785714285714287 -0.41785714285714287V5.8500000000000005c0 -0.23077414285714287 -0.18711642857142857 -0.41785714285714287 -0.41785714285714287 -0.41785714285714287Z" stroke-width="1"></path><path id="Vector_2" stroke="#000" stroke-linecap="round" stroke-linejoin="round" d="M10.864285714285714 0.41785714285714287H7.521428571428571c-0.23077414285714287 0 -0.41785714285714287 0.1870813285714286 -0.41785714285714287 0.41785714285714287v1.6797857142857142c0 0.23077414285714287 0.187083 0.41785714285714287 0.41785714285714287 0.41785714285714287h3.342857142857143c0.2307407142857143 0 0.41785714285714287 -0.187083 0.41785714285714287 -0.41785714285714287V0.8357142857142857c0 -0.23077581428571428 -0.18711642857142857 -0.41785714285714287 -0.41785714285714287 -0.41785714285714287Z" stroke-width="1"></path><path id="Vector_3" stroke="#000" stroke-linecap="round" stroke-linejoin="round" d="M4.178571428571429 0.41785714285714287H0.8357142857142857C0.6049384714285715 0.41785714285714287 0.41785714285714287 0.6049384714285715 0.41785714285714287 0.8357142857142857v5.014285714285714c0 0.23077414285714287 0.1870813285714286 0.41785714285714287 0.41785714285714287 0.41785714285714287h3.342857142857143c0.23077414285714287 0 0.41785714285714287 -0.187083 0.41785714285714287 -0.41785714285714287V0.8357142857142857c0 -0.23077581428571428 -0.187083 -0.41785714285714287 -0.41785714285714287 -0.41785714285714287Z" stroke-width="1"></path><path id="Vector_4" stroke="#000" stroke-linecap="round" stroke-linejoin="round" d="M4.178571428571429 8.766642857142857H0.8357142857142857c-0.23077581428571428 0 -0.41785714285714287 0.18703285714285714 -0.41785714285714287 0.41785714285714287V10.864285714285714c0 0.2307407142857143 0.1870813285714286 0.41785714285714287 0.41785714285714287 0.41785714285714287h3.342857142857143c0.23077414285714287 0 0.41785714285714287 -0.18711642857142857 0.41785714285714287 -0.41785714285714287v-1.6797857142857142c0 -0.23082428571428573 -0.187083 -0.41785714285714287 -0.41785714285714287 -0.41785714285714287Z" stroke-width="1"></path></g></svg>