<svg version="1.1" xmlns="http://www.w3.org/2000/svg" xmlns:xlink="http://www.w3.org/1999/xlink" width="128px" height="128px" viewBox="0,0,256,256"><g fill="none" fill-rule="nonzero" stroke="none" stroke-width="1" stroke-linecap="butt" stroke-linejoin="miter" stroke-miterlimit="10" stroke-dasharray="" stroke-dashoffset="0" font-family="none" font-weight="none" font-size="none" text-anchor="none" style="mix-blend-mode: normal"><g transform="scale(2,2)"><path d="M114,27v87c0,5.5 -4.5,10 -10,10h-80z" fill="#ffffff"></path><path d="M114,14v20c0,49.7 -40.3,90 -90,90v0c-5.5,0 -10,-4.5 -10,-10v-100c0,-5.5 4.5,-10 10,-10h80c5.5,0 10,4.5 10,10v20" fill="#ffffff"></path><path d="M104,127h-30c-1.7,0 -3,-1.3 -3,-3c0,-1.7 1.3,-3 3,-3h30c3.9,0 7,-3.1 7,-7v-27c0,-1.7 1.3,-3 3,-3c1.7,0 3,1.3 3,3v27c0,7.2 -5.8,13 -13,13z" fill="#1578ba"></path><path d="M89,67h-50c-1.7,0 -3,-1.3 -3,-3c0,-1.7 1.3,-3 3,-3h50c1.7,0 3,1.3 3,3c0,1.7 -1.3,3 -3,3z" fill="#515151"></path><path d="M79,37h-30c-1.7,0 -3,-1.3 -3,-3c0,-1.7 1.3,-3 3,-3h30c1.7,0 3,1.3 3,3c0,1.7 -1.3,3 -3,3z" fill="#515151"></path><path d="M79,87h-40c-1.7,0 -3,-1.3 -3,-3c0,-1.7 1.3,-3 3,-3h40c1.7,0 3,1.3 3,3c0,1.7 -1.3,3 -3,3z" fill="#515151"></path><path d="M24,127c-7.2,0 -13,-5.8 -13,-13v-100c0,-7.2 5.8,-13 13,-13h80c7.2,0 13,5.8 13,13v20c0,51.3 -41.7,93 -93,93zM24,7c-3.9,0 -7,3.1 -7,7v100c0,3.9 3.1,7 7,7c48,0 87,-39 87,-87v-20c0,-3.9 -3.1,-7 -7,-7z" fill="#515151"></path></g></g></svg>