<?xml version="1.0" ?><!DOCTYPE svg  PUBLIC '-//W3C//DTD SVG 1.1//EN'  'http://www.w3.org/Graphics/SVG/1.1/DTD/svg11.dtd'><svg enable-background="new 0 0 512 512" height="512px" id="Data_x5F_Analysis" version="1.1" viewBox="0 0 512 512" width="512px" xml:space="preserve" xmlns="http://www.w3.org/2000/svg" xmlns:xlink="http://www.w3.org/1999/xlink"><linearGradient gradientUnits="userSpaceOnUse" id="SVGID_1_" x1="21.998" x2="341.1887" y1="402.7939" y2="83.6033"><stop offset="0" style="stop-color:#00FFFF"/><stop offset="1" style="stop-color:#FF7BAC"/></linearGradient><rect fill="url(#SVGID_1_)" height="369.15" width="269.231" x="46.978" y="58.623"/><path d="M274.167,122.428c6.435,0,6.444-10,0-10c-20.664,0-176.323,0-183.986,0c-6.435,0-6.444,10,0,10  C90.181,122.428,266.504,122.428,274.167,122.428z" fill="#FFFFFF"/><path d="M274.167,158.122c6.435,0,6.444-10,0-10c-20.664,0-176.323,0-183.986,0c-6.435,0-6.444,10,0,10  C90.181,158.122,266.504,158.122,274.167,158.122z" fill="#FFFFFF"/><path d="M274.167,193.817c6.435,0,6.444-10,0-10c-20.664,0-176.323,0-183.986,0c-6.435,0-6.444,10,0,10  C90.181,193.817,266.504,193.817,274.167,193.817z" fill="#FFFFFF"/><path d="M222.512,230.382c6.434,0,6.444-10,0-10c-38.595,0-126.814,0-132.331,0c-6.435,0-6.444,10,0,10  C90.181,230.382,216.996,230.382,222.512,230.382z" fill="#FFFFFF"/><path d="M90.181,266.015c20.664,0,41.328,0,61.992,0c33.002,0,66.003,0,99.005,0c7.663,0,15.326,0,22.989,0  c6.435,0,6.444-10,0-10c-20.664,0-41.328,0-61.992,0c-33.002,0-66.003,0-99.005,0c-7.663,0-15.326,0-22.989,0  C83.746,256.015,83.736,266.015,90.181,266.015L90.181,266.015z" fill="#FFFFFF"/><path d="M274.167,301.709c6.435,0,6.444-10,0-10c-20.664,0-176.323,0-183.986,0c-6.435,0-6.444,10,0,10  C90.181,301.709,266.504,301.709,274.167,301.709z" fill="#FFFFFF"/><path d="M274.167,337.404c6.435,0,6.444-10,0-10c-20.664,0-176.323,0-183.986,0c-6.435,0-6.444,10,0,10  C90.181,337.404,266.504,337.404,274.167,337.404z" fill="#FFFFFF"/><path d="M222.512,373.969c6.434,0,6.444-10,0-10c-38.595,0-126.814,0-132.331,0c-6.435,0-6.444,10,0,10  C90.181,373.969,216.996,373.969,222.512,373.969z" fill="#FFFFFF"/><circle cx="279.463" cy="267.817" fill="#FFFFFF" r="87.567"/><path d="M461.244,424.707l-60.817-60.818l-5.375,5.375c-13.316-13.315-26.633-26.632-39.949-39.948  c2.097-2.543,4.089-5.192,5.938-7.972c25.443-38.193,19.284-90.114-12.587-122.516c-29.193-28.715-72.968-36.289-110.194-19.424  c-36.777,16.661-59.988,57.191-55.909,97.32c4.137,40.701,33.292,75.83,73.356,85.735c30.183,7.461,61.696-0.195,85.175-19.08  c13.343,13.342,26.686,26.685,40.028,40.027l-5.375,5.375l60.817,60.817c5.748,5.748,15.979,4.835,22.854-2.038  C466.079,440.687,466.992,430.455,461.244,424.707z M271.241,345c-32.204-3.02-59.442-27.633-67.133-58.742  c-7.67-31.024,5.218-64.984,31.923-82.748c30.814-20.498,71.934-16.455,98.28,9.46c22.342,22.714,29.491,58.063,15.71,87.228  C335.778,330.336,304.371,348.106,271.241,345z" fill="#3F5EAB"/></svg>